HIERARCHY
ROOT joint_0
{
	OFFSET 0.000000 0.000000 0.000000
	CHANNELS 6 Xposition Yposition Zposition Zrotation Yrotation Xrotation 
	JOINT joint_1
	{
		OFFSET 0.587158 0.057678 95.682007
		CHANNELS 3 Zrotation Yrotation Xrotation
		JOINT joint_2
		{
			OFFSET -7.116699 -0.219910 87.157959
			CHANNELS 3 Zrotation Yrotation Xrotation
			JOINT joint_3
			{
				OFFSET -5.892822 -0.290222 87.151001
				CHANNELS 3 Zrotation Yrotation Xrotation
				JOINT joint_4
				{
					OFFSET 5.544678 -0.099609 123.768066
					CHANNELS 3 Zrotation Yrotation Xrotation
					JOINT joint_5
					{
						OFFSET 41.981201 4.519775 84.257935
						CHANNELS 3 Zrotation Yrotation Xrotation
						End Site
						{
							OFFSET 0.000000 0.000000 0.000000
						}
					}
				}
				JOINT joint_6
				{
					OFFSET 3.940918 -26.976501 69.308105
					CHANNELS 3 Zrotation Yrotation Xrotation
					JOINT joint_7
					{
						OFFSET 4.776123 -152.592468 -16.842041
						CHANNELS 3 Zrotation Yrotation Xrotation
						JOINT joint_8
						{
							OFFSET 54.421875 -30.424072 -248.864014
							CHANNELS 3 Zrotation Yrotation Xrotation
							JOINT joint_9
							{
								OFFSET 42.120117 -33.387878 -236.524963
								CHANNELS 3 Zrotation Yrotation Xrotation
								End Site
								{
									OFFSET 0.000000 0.000000 0.000000
								}
							}
						}
					}
				}
				JOINT joint_10
				{
					OFFSET 2.312012 26.904114 69.425049
					CHANNELS 3 Zrotation Yrotation Xrotation
					JOINT joint_11
					{
						OFFSET 0.971436 152.197815 -20.626953
						CHANNELS 3 Zrotation Yrotation Xrotation
						JOINT joint_12
						{
							OFFSET 49.954102 28.991455 -249.970093
							CHANNELS 3 Zrotation Yrotation Xrotation
							JOINT joint_13
							{
								OFFSET 48.146973 19.598389 -236.919922
								CHANNELS 3 Zrotation Yrotation Xrotation
								End Site
								{
									OFFSET 0.000000 0.000000 0.000000
								}
							}
						}
					}
				}
			}
		}
	}
	JOINT joint_14
	{
		OFFSET 16.305664 -89.442932 -108.224976
		CHANNELS 3 Zrotation Yrotation Xrotation
		JOINT joint_15
		{
			OFFSET -22.282471 13.437134 -412.904968
			CHANNELS 3 Zrotation Yrotation Xrotation
			JOINT joint_16
			{
				OFFSET -45.426025 14.484802 -445.892029
				CHANNELS 3 Zrotation Yrotation Xrotation
				JOINT joint_17
				{
					OFFSET 173.389404 -9.944031 -76.473001
					CHANNELS 3 Zrotation Yrotation Xrotation
					End Site
					{
						OFFSET 0.000000 0.000000 0.000000
					}
				}
			}
		}
	}
	JOINT joint_18
	{
		OFFSET 13.392822 89.408875 -108.653992
		CHANNELS 3 Zrotation Yrotation Xrotation
		JOINT joint_19
		{
			OFFSET -29.032959 24.483521 -411.977966
			CHANNELS 3 Zrotation Yrotation Xrotation
			JOINT joint_20
			{
				OFFSET -30.530029 28.986328 -446.453018
				CHANNELS 3 Zrotation Yrotation Xrotation
				JOINT joint_21
				{
					OFFSET 170.330078 33.400757 -76.698997
					CHANNELS 3 Zrotation Yrotation Xrotation
					End Site
					{
						OFFSET 0.000000 0.000000 0.000000
					}
				}
			}
		}
	}
}
MOTION
Frames: 6
Frame Time: 0.016667
-1827.788452 1092.792725 1060.531006 -52.445686 -2.337669 0.303571 0.828085 0.930113 -0.521271 0.944709 -0.200330 0.120197 0.941684 0.191235 -0.107660 0.940368 2.200552 -1.982357 0.000000 0.000000 0.000000 -0.835854 1.061910 0.884194 1.251554 2.134096 -0.383198 0.937955 -1.131981 0.577655 0.000000 0.000000 0.000000 2.085410 2.259512 -1.989871 0.542359 2.394136 2.712623 0.275900 -0.457289 0.823455 0.000000 0.000000 0.000000 -1.894795 -0.458207 -4.950985 -2.310012 4.726781 0.013702 -2.405841 -2.019321 -1.171007 0.000000 0.000000 0.000000 33.476568 -3.577977 2.472244 32.796743 -1.815754 3.026052 33.180377 8.009928 13.072080 0.000000 0.000000 0.000000 
-1827.674683 1093.110962 1060.537964 -52.478108 -2.348515 0.303384 0.830698 0.958068 -0.531540 0.949514 -0.204793 0.122664 0.946397 0.194871 -0.109084 0.938289 2.202828 -1.977632 0.000000 0.000000 0.000000 -0.836714 1.056907 0.897492 1.259142 2.131506 -0.381265 0.948901 -1.149397 0.588497 0.000000 0.000000 0.000000 2.075353 2.242897 -1.988210 0.548585 2.380098 2.723969 0.280741 -0.450681 0.832517 0.000000 0.000000 0.000000 -1.879051 -0.471251 -4.967512 -2.296151 4.741845 0.011102 -2.394067 -2.014799 -1.165404 0.000000 0.000000 0.000000 33.488540 -3.564200 2.463087 32.808927 -1.813077 3.025212 33.190632 7.996064 13.079764 0.000000 0.000000 0.000000 
-1827.545654 1093.445190 1060.546997 -52.515541 -2.358394 0.308228 0.835656 0.982424 -0.546363 0.956802 -0.207183 0.125317 0.953533 0.197635 -0.110833 0.934367 2.205384 -1.969167 0.000000 0.000000 0.000000 -0.830777 1.054550 0.906397 1.264694 2.132652 -0.369510 0.951226 -1.153239 0.587194 0.000000 0.000000 0.000000 2.070138 2.228349 -1.983721 0.551618 2.367155 2.736371 0.278683 -0.457142 0.829970 0.000000 0.000000 0.000000 -1.860574 -0.490883 -4.995528 -2.281483 4.766620 0.015972 -2.381323 -2.016940 -1.159761 0.000000 0.000000 0.000000 33.504679 -3.537184 2.447159 32.825747 -1.826624 3.016126 33.206721 7.983220 13.090529 0.000000 0.000000 0.000000 
-1827.411865 1093.787598 1060.557007 -52.554978 -2.367597 0.314791 0.842388 1.004202 -0.562660 0.965853 -0.210120 0.128200 0.962329 0.199686 -0.113902 0.929414 2.210186 -1.958462 0.000000 0.000000 0.000000 -0.822700 1.055243 0.914203 1.269054 2.137351 -0.352114 0.947865 -1.148067 0.578033 0.000000 0.000000 0.000000 2.066701 2.214934 -1.977043 0.553033 2.355127 2.750121 0.273107 -0.470324 0.821785 0.000000 0.000000 0.000000 -1.841078 -0.513881 -5.028368 -2.266633 4.796029 0.024629 -2.368322 -2.023563 -1.154258 0.000000 0.000000 0.000000 33.522949 -3.504984 2.428321 32.844810 -1.847640 3.003723 33.225716 7.971231 13.102736 0.000000 0.000000 0.000000 
-1827.283569 1094.110474 1060.568970 -52.591074 -2.372679 0.318522 0.848778 1.012977 -0.578640 0.973940 -0.212266 0.132010 0.970096 0.201614 -0.116248 0.925390 2.218426 -1.949571 0.000000 0.000000 0.000000 -0.819328 1.058598 0.922955 1.272058 2.144183 -0.335398 0.942254 -1.136901 0.570398 0.000000 0.000000 0.000000 2.061623 2.204675 -1.971941 0.554627 2.346741 2.765540 0.268483 -0.482227 0.815710 0.000000 0.000000 0.000000 -1.823054 -0.534499 -5.055158 -2.252328 4.816015 0.029959 -2.355597 -2.034127 -1.149095 0.000000 0.000000 0.000000 33.540130 -3.483302 2.409232 32.861685 -1.861771 2.999077 33.242875 7.961354 13.113343 0.000000 0.000000 0.000000 
-1827.161011 1094.397705 1060.586060 -52.620454 -2.368552 0.316136 0.853032 0.998629 -0.591229 0.978471 -0.211736 0.135520 0.974229 0.200708 -0.118308 0.923572 2.234632 -1.944848 0.000000 0.000000 0.000000 -0.820187 1.065565 0.936329 1.272376 2.154021 -0.321116 0.932736 -1.115305 0.565165 0.000000 0.000000 0.000000 2.059043 2.200351 -1.967638 0.556367 2.344499 2.782938 0.265554 -0.491655 0.813379 0.000000 0.000000 0.000000 -1.807848 -0.550664 -5.069676 -2.238916 4.815635 0.028614 -2.342992 -2.051210 -1.144337 0.000000 0.000000 0.000000 33.555563 -3.482448 2.389804 32.874765 -1.863582 3.007136 33.256574 7.954122 13.121384 0.000000 0.000000 0.000000 
